<svg width="20" height="18" viewBox="0 0 20 18" fill="none" xmlns="http://www.w3.org/2000/svg">
<path d="M0.909091 1.97266L2.07273 0.818115L17.2727 16.0181L16.1182 17.1818L13.3182 14.3818C12.2727 14.7272 11.1636 14.909 10 14.909C5.45455 14.909 1.57273 12.0818 0 8.09084C0.627273 6.49084 1.62727 5.08175 2.9 3.96357L0.909091 1.97266ZM10 5.36357C10.7233 5.36357 11.417 5.65091 11.9285 6.16237C12.4399 6.67383 12.7273 7.36752 12.7273 8.09084C12.7277 8.40045 12.6755 8.70787 12.5727 8.99993L9.09091 5.51812C9.38297 5.41537 9.69039 5.36311 10 5.36357ZM10 1.27266C14.5455 1.27266 18.4273 4.09993 20 8.09084C19.2576 9.97533 17.9969 11.6111 16.3636 12.809L15.0727 11.509C16.33 10.6394 17.3439 9.46276 18.0182 8.09084C17.2833 6.59072 16.1423 5.32687 14.7249 4.44298C13.3074 3.55909 11.6704 3.09063 10 3.09084C9.00909 3.09084 8.03636 3.25448 7.12727 3.54539L5.72727 2.15448C7.03636 1.59084 8.48182 1.27266 10 1.27266ZM1.98182 8.09084C2.71668 9.59096 3.85769 10.8548 5.27512 11.7387C6.69256 12.6226 8.32956 13.0911 10 13.0908C10.6273 13.0908 11.2455 13.0272 11.8182 12.8999L9.74546 10.8181C9.11288 10.7503 8.52257 10.468 8.0727 10.0181C7.62284 9.56827 7.34053 8.97797 7.27273 8.34539L4.18182 5.24539C3.28182 6.01811 2.52727 6.98175 1.98182 8.09084Z" fill="#A7DC74"/>
</svg>
