<svg width="20" height="15" viewBox="0 0 20 15" fill="none" xmlns="http://www.w3.org/2000/svg">
<path d="M5.08998 11.781C6.83898 13.149 8.30898 13.587 9.99998 13.587C11.471 13.587 13.391 12.974 15.238 11.668C16.57 10.726 17.671 9.353 18.538 7.538C17.598 5.906 16.51 4.57 15.275 3.525C13.565 2.077 11.693 1.413 9.96298 1.413C8.17298 1.413 6.11298 2.211 4.35498 3.887C3.08898 5.093 2.12998 6.307 1.47498 7.525C2.53998 9.314 3.74598 10.731 5.08998 11.781ZM9.99998 15C8.02598 15 6.26498 14.475 4.25898 12.906C2.68198 11.674 1.29498 10.005 0.0949793 7.906C0.0363783 7.8033 0.00382473 7.6878 0.000163982 7.56961C-0.00349677 7.45142 0.0218467 7.33413 0.0739793 7.228C0.807979 5.735 1.92498 4.278 3.42098 2.851C5.43798 0.928 7.83298 0 9.96298 0C12.006 0 14.186 0.775 16.147 2.434C17.596 3.66 18.85 5.236 19.91 7.156C20.02 7.354 20.03 7.595 19.937 7.801C18.949 10.001 17.642 11.683 16.016 12.833C13.94 14.3 11.749 15 9.99898 15M10.233 11.4C9.74709 11.4 9.26595 11.3043 8.81705 11.1184C8.36815 10.9324 7.96026 10.6599 7.61668 10.3163C7.27311 9.97272 7.00057 9.56483 6.81463 9.11593C6.62868 8.66702 6.53298 8.18589 6.53298 7.7C6.53298 7.21411 6.62868 6.73298 6.81463 6.28407C7.00057 5.83517 7.27311 5.42728 7.61668 5.0837C7.96026 4.74013 8.36815 4.46759 8.81705 4.28165C9.26595 4.0957 9.74709 4 10.233 4C11.2143 4 12.1554 4.38982 12.8493 5.0837C13.5432 5.77759 13.933 6.7187 13.933 7.7C13.933 8.6813 13.5432 9.62241 12.8493 10.3163C12.1554 11.0102 11.2143 11.4 10.233 11.4ZM10.233 10C10.535 10 10.8341 9.94051 11.1132 9.82492C11.3922 9.70934 11.6457 9.53992 11.8593 9.32635C12.0729 9.11277 12.2423 8.85922 12.3579 8.58017C12.4735 8.30112 12.533 8.00204 12.533 7.7C12.533 7.39796 12.4735 7.09888 12.3579 6.81983C12.2423 6.54078 12.0729 6.28723 11.8593 6.07365C11.6457 5.86008 11.3922 5.69066 11.1132 5.57508C10.8341 5.45949 10.535 5.4 10.233 5.4C9.62298 5.4 9.03797 5.64232 8.60663 6.07365C8.1753 6.50499 7.93298 7.09 7.93298 7.7C7.93298 8.31 8.1753 8.89501 8.60663 9.32635C9.03797 9.75768 9.62298 10 10.233 10Z" fill="#A7DC74"/>
</svg>
