<svg width="48" height="48" viewBox="0 0 48 48" fill="none" xmlns="http://www.w3.org/2000/svg">
<path fill-rule="evenodd" clip-rule="evenodd" d="M16.5853 25.414C16.2104 25.0389 15.9997 24.5303 15.9997 24C15.9997 23.4697 16.2104 22.9611 16.5853 22.586L27.8993 11.272C28.0838 11.081 28.3045 10.9286 28.5485 10.8238C28.7925 10.719 29.055 10.6638 29.3205 10.6615C29.5861 10.6592 29.8494 10.7098 30.0952 10.8104C30.341 10.9109 30.5643 11.0594 30.7521 11.2472C30.9399 11.435 31.0884 11.6583 31.189 11.9041C31.2895 12.1499 31.3401 12.4133 31.3378 12.6788C31.3355 12.9444 31.2803 13.2068 31.1755 13.4508C31.0707 13.6948 30.9183 13.9155 30.7273 14.1L20.8273 24L30.7273 33.9C31.0916 34.2772 31.2932 34.7824 31.2887 35.3068C31.2841 35.8312 31.0738 36.3328 30.703 36.7036C30.3321 37.0745 29.8305 37.2848 29.3061 37.2894C28.7817 37.2939 28.2765 37.0923 27.8993 36.728L16.5853 25.414Z" fill="#E6E6E6"/>
</svg>
