<svg width="17" height="17" viewBox="0 0 17 17" fill="none" xmlns="http://www.w3.org/2000/svg">
<path fill-rule="evenodd" clip-rule="evenodd" d="M2.95284 7.14326L1.66106 4.66521C0.308965 2.07141 -0.367503 0.774091 0.203459 0.203129C0.773629 -0.367042 2.07174 0.308635 4.66555 1.66073L14.051 6.55132C15.8766 7.50272 16.7895 7.97842 16.8098 8.6909C16.8302 9.40338 15.9431 9.82765 14.1705 10.6762L5.04774 15.0381C2.52702 16.244 1.26626 16.8474 0.661716 16.2429C0.0580082 15.6392 0.660553 14.3776 1.86653 11.8568L3.01707 9.44858L10.1158 9.65139C10.4179 9.65477 10.7024 9.53925 10.9081 9.32971C11.1139 9.12016 11.2243 8.83336 11.2157 8.53107C11.207 8.22878 11.08 7.9352 10.862 7.71355C10.6439 7.4919 10.3523 7.35991 10.0499 7.34602L2.95284 7.14326Z" fill="#A7DC74"/>
</svg>
