<svg width="40" height="40" viewBox="0 0 40 40" fill="none" xmlns="http://www.w3.org/2000/svg">
<rect width="40" height="40" rx="18" fill="#CCCCCC"/>
<path d="M22.5994 20.4993C23.2891 19.9567 23.7924 19.2126 24.0395 18.3706C24.2866 17.5286 24.2651 16.6305 23.978 15.8013C23.6909 14.972 23.1525 14.2529 22.4376 13.7439C21.7228 13.2349 20.8671 12.9614 19.9896 12.9614C19.112 12.9614 18.2563 13.2349 17.5415 13.7439C16.8266 14.2529 16.2882 14.972 16.0011 15.8013C15.714 16.6305 15.6925 17.5286 15.9396 18.3706C16.1867 19.2126 16.6901 19.9567 17.3797 20.4993C16.198 20.9728 15.1669 21.758 14.3963 22.7714C13.6257 23.7848 13.1446 24.9883 13.0042 26.2536C12.9941 26.346 13.0022 26.4394 13.0282 26.5287C13.0541 26.6179 13.0974 26.7012 13.1556 26.7737C13.273 26.9201 13.4438 27.0139 13.6303 27.0344C13.8169 27.0549 14.004 27.0005 14.1504 26.8831C14.2968 26.7657 14.3906 26.5949 14.4112 26.4083C14.5656 25.0332 15.2213 23.7632 16.253 22.841C17.2846 21.9187 18.6199 21.4089 20.0036 21.4089C21.3874 21.4089 22.7227 21.9187 23.7543 22.841C24.786 23.7632 25.4416 25.0332 25.5961 26.4083C25.6152 26.5812 25.6977 26.7408 25.8276 26.8565C25.9575 26.9721 26.1257 27.0355 26.2996 27.0344H26.377C26.5614 27.0132 26.7299 26.92 26.8458 26.775C26.9618 26.6301 27.0158 26.4452 26.996 26.2606C26.8549 24.9917 26.3712 23.7851 25.5967 22.7702C24.8222 21.7553 23.7861 20.9703 22.5994 20.4993ZM19.9896 19.9999C19.433 19.9999 18.889 19.8348 18.4263 19.5256C17.9636 19.2165 17.6029 18.777 17.3899 18.2628C17.177 17.7487 17.1212 17.1829 17.2298 16.6371C17.3384 16.0913 17.6064 15.5899 17.9999 15.1964C18.3934 14.8028 18.8948 14.5348 19.4406 14.4263C19.9864 14.3177 20.5522 14.3734 21.0664 14.5864C21.5805 14.7994 22.02 15.16 22.3292 15.6228C22.6384 16.0855 22.8034 16.6295 22.8034 17.186C22.8034 17.9323 22.5069 18.648 21.9792 19.1757C21.4515 19.7034 20.7358 19.9999 19.9896 19.9999Z" fill="#19290A"/>
</svg>
