<svg width="18" height="18" viewBox="0 0 18 18" fill="none" xmlns="http://www.w3.org/2000/svg">
<path d="M17.2095 0.803594C17.0889 0.682793 16.9457 0.586954 16.7881 0.521563C16.6304 0.456172 16.4615 0.422513 16.2908 0.422513C16.1201 0.422513 15.9511 0.456172 15.7935 0.521563C15.6359 0.586954 15.4927 0.682793 15.3721 0.803594L9 7.16268L2.62789 0.790563C2.50725 0.669921 2.36402 0.574221 2.2064 0.50893C2.04877 0.443639 1.87983 0.410034 1.70921 0.410034C1.5386 0.410034 1.36965 0.443639 1.21203 0.50893C1.0544 0.574221 0.911175 0.669921 0.790533 0.790563C0.66989 0.911206 0.574191 1.05443 0.5089 1.21206C0.443608 1.36968 0.410004 1.53863 0.410004 1.70924C0.410004 1.87986 0.443608 2.0488 0.5089 2.20643C0.574191 2.36406 0.66989 2.50728 0.790533 2.62792L7.16265 9.00003L0.790533 15.3721C0.66989 15.4928 0.574191 15.636 0.5089 15.7936C0.443608 15.9513 0.410004 16.1202 0.410004 16.2908C0.410004 16.4614 0.443608 16.6304 0.5089 16.788C0.574191 16.9456 0.66989 17.0889 0.790533 17.2095C0.911175 17.3301 1.0544 17.4258 1.21203 17.4911C1.36965 17.5564 1.5386 17.59 1.70921 17.59C1.87983 17.59 2.04877 17.5564 2.2064 17.4911C2.36402 17.4258 2.50725 17.3301 2.62789 17.2095L9 10.8374L15.3721 17.2095C15.4928 17.3301 15.636 17.4258 15.7936 17.4911C15.9512 17.5564 16.1202 17.59 16.2908 17.59C16.4614 17.59 16.6304 17.5564 16.788 17.4911C16.9456 17.4258 17.0888 17.3301 17.2095 17.2095C17.3301 17.0889 17.4258 16.9456 17.4911 16.788C17.5564 16.6304 17.59 16.4614 17.59 16.2908C17.59 16.1202 17.5564 15.9513 17.4911 15.7936C17.4258 15.636 17.3301 15.4928 17.2095 15.3721L10.8374 9.00003L17.2095 2.62792C17.7046 2.13275 17.7046 1.29877 17.2095 0.803594Z" fill="#CCCCCC"/>
</svg>
