<svg width="48" height="48" viewBox="0 0 48 48" fill="none" xmlns="http://www.w3.org/2000/svg">
<g clip-path="url(#clip0_1390_4717)">
<path fill-rule="evenodd" clip-rule="evenodd" d="M31.4147 22.586C31.7896 22.9611 32.0003 23.4697 32.0003 24C32.0003 24.5303 31.7896 25.0389 31.4147 25.414L20.1007 36.728C19.9162 36.919 19.6955 37.0714 19.4515 37.1762C19.2075 37.281 18.945 37.3362 18.6795 37.3385C18.4139 37.3408 18.1506 37.2902 17.9048 37.1896C17.659 37.0891 17.4357 36.9406 17.2479 36.7528C17.0601 36.565 16.9116 36.3417 16.811 36.0959C16.7105 35.8501 16.6599 35.5868 16.6622 35.3212C16.6645 35.0556 16.7197 34.7932 16.8245 34.5492C16.9293 34.3052 17.0817 34.0845 17.2727 33.9L27.1727 24L17.2727 14.1C16.9084 13.7228 16.7068 13.2176 16.7113 12.6932C16.7159 12.1688 16.9262 11.6672 17.297 11.2964C17.6679 10.9255 18.1695 10.7152 18.6939 10.7106C19.2183 10.7061 19.7235 10.9077 20.1007 11.272L31.4147 22.586Z" fill="#E6E6E6"/>
</g>
<defs>
<clipPath id="clip0_1390_4717">
<rect width="48" height="48" fill="white"/>
</clipPath>
</defs>
</svg>
