<svg width="24" height="21" viewBox="0 0 24 21" fill="none" xmlns="http://www.w3.org/2000/svg">
<g clip-path="url(#clip0_620_858)">
<path d="M10.1641 16.0414L9.72595 15.9946L9.39579 16.2864C7.74959 17.7414 5.83896 18.7481 3.64957 19.308L3.63603 19.3114L3.6226 19.3153C3.52897 19.342 3.43036 19.3677 3.32668 19.3921C3.49889 19.2021 3.62482 19.0634 3.705 18.9756C3.83803 18.8299 4.00356 18.6157 4.18856 18.3631C4.3921 18.0851 4.56683 17.8139 4.70355 17.5519C4.82878 17.3118 4.96157 17.0199 5.10165 16.6837C5.25278 16.321 5.3823 15.9416 5.49099 15.5464L5.69752 14.7954L5.01994 14.4113C3.73176 13.6811 2.74633 12.7964 2.03481 11.7664C1.3347 10.753 1 9.69486 1 8.57143C1 7.60319 1.26176 6.67013 1.8087 5.75727C2.36754 4.82456 3.12351 4.01097 4.09145 3.31728C5.06023 2.62299 6.2347 2.05762 7.63033 1.63305C9.0136 1.21223 10.4688 1 12 1C14.0594 1 15.9366 1.36029 17.6434 2.0687C19.3563 2.7796 20.667 3.72882 21.6171 4.89671C22.5579 6.05303 23 7.26955 23 8.57143C23 9.87331 22.5579 11.0898 21.6171 12.2461C20.667 13.414 19.3563 14.3633 17.6434 15.0742C15.9366 15.7826 14.0594 16.1429 12 16.1429C11.413 16.1429 10.8012 16.1093 10.1641 16.0414ZM2.62222 20.17L2.3119 20.0731L2.62222 20.17ZM2.636 20.1883C2.63595 20.1883 2.63653 20.1874 2.63783 20.1854C2.63668 20.1872 2.63604 20.1882 2.636 20.1883ZM2.44196 19.5809L2.43766 19.582L2.44196 19.5809ZM2.2482 19.6294L2.12033 19.6613L2.2482 19.6294ZM2.27844 20.0626L2.27812 20.0625L2.27844 20.0626ZM2.2644 19.6253L2.25866 19.6206L2.25937 19.6266L2.2644 19.6253Z" stroke="#A7DC74" stroke-width="2"/>
</g>
<defs>
<clipPath id="clip0_620_858">
<rect width="24" height="20.5714" fill="white"/>
</clipPath>
</defs>
</svg>
