<svg width="18" height="18" viewBox="0 0 18 18" fill="none" xmlns="http://www.w3.org/2000/svg">
<path d="M16.5 16.5L12.7032 12.7032M12.7032 12.7032C13.3126 12.0938 13.796 11.3703 14.1258 10.5741C14.4556 9.7779 14.6254 8.92451 14.6254 8.06269C14.6254 7.20086 14.4556 6.34748 14.1258 5.55126C13.796 4.75503 13.3126 4.03157 12.7032 3.42217C12.0938 2.81276 11.3703 2.32936 10.5741 1.99955C9.7779 1.66975 8.92451 1.5 8.06269 1.5C7.20086 1.5 6.34748 1.66975 5.55126 1.99955C4.75503 2.32936 4.03157 2.81277 3.42217 3.42217C2.19142 4.65291 1.5 6.32216 1.5 8.06269C1.5 9.80322 2.19142 11.4725 3.42217 12.7032C4.65291 13.934 6.32216 14.6254 8.06269 14.6254C9.80322 14.6254 11.4725 13.934 12.7032 12.7032Z" stroke="#A7DC74" stroke-width="2" stroke-linecap="round" stroke-linejoin="round"/>
</svg>
