<svg width="32" height="32" viewBox="0 0 32 32" fill="none" xmlns="http://www.w3.org/2000/svg">
<path d="M18.5994 16.4992C19.2891 15.9566 19.7924 15.2126 20.0395 14.3705C20.2866 13.5285 20.2651 12.6304 19.978 11.8012C19.6909 10.972 19.1525 10.2528 18.4376 9.74386C17.7228 9.23488 16.8671 8.96136 15.9896 8.96136C15.112 8.96136 14.2563 9.23488 13.5415 9.74386C12.8266 10.2528 12.2882 10.972 12.0011 11.8012C11.714 12.6304 11.6925 13.5285 11.9396 14.3705C12.1867 15.2126 12.6901 15.9566 13.3797 16.4992C12.198 16.9727 11.1669 17.758 10.3963 18.7714C9.62575 19.7847 9.14463 20.9882 9.00424 22.2535C8.99408 22.3459 9.00221 22.4394 9.02818 22.5286C9.05414 22.6178 9.09743 22.7011 9.15556 22.7736C9.27298 22.92 9.44375 23.0138 9.63032 23.0344C9.81689 23.0549 10.004 23.0004 10.1504 22.883C10.2968 22.7656 10.3906 22.5949 10.4112 22.4083C10.5656 21.0332 11.2213 19.7632 12.253 18.8409C13.2846 17.9187 14.6199 17.4088 16.0036 17.4088C17.3874 17.4088 18.7227 17.9187 19.7543 18.8409C20.786 19.7632 21.4416 21.0332 21.5961 22.4083C21.6152 22.5811 21.6977 22.7408 21.8276 22.8564C21.9575 22.972 22.1257 23.0354 22.2996 23.0344H22.377C22.5614 23.0131 22.7299 22.9199 22.8458 22.775C22.9618 22.63 23.0158 22.4451 22.996 22.2606C22.8549 20.9917 22.3712 19.7851 21.5967 18.7701C20.8222 17.7552 19.7861 16.9702 18.5994 16.4992ZM15.9896 15.9998C15.433 15.9998 14.889 15.8348 14.4263 15.5256C13.9636 15.2164 13.6029 14.7769 13.3899 14.2628C13.177 13.7486 13.1212 13.1828 13.2298 12.637C13.3384 12.0912 13.6064 11.5898 13.9999 11.1963C14.3934 10.8028 14.8948 10.5348 15.4406 10.4262C15.9864 10.3176 16.5522 10.3734 17.0664 10.5863C17.5805 10.7993 18.02 11.16 18.3292 11.6227C18.6384 12.0854 18.8034 12.6294 18.8034 13.186C18.8034 13.9322 18.5069 14.648 17.9792 15.1756C17.4515 15.7033 16.7358 15.9998 15.9896 15.9998Z" fill="#A7DC74"/>
</svg>
