<svg width="20" height="18" viewBox="0 0 20 18" fill="none" xmlns="http://www.w3.org/2000/svg">
<path d="M0.909091 1.97278L2.07273 0.818237L17.2727 16.0182L16.1182 17.1819L13.3182 14.3819C12.2727 14.7273 11.1636 14.9091 10 14.9091C5.45455 14.9091 1.57273 12.0819 0 8.09096C0.627273 6.49096 1.62727 5.08187 2.9 3.96369L0.909091 1.97278ZM10 5.36369C10.7233 5.36369 11.417 5.65103 11.9285 6.16249C12.4399 6.67395 12.7273 7.36765 12.7273 8.09096C12.7277 8.40057 12.6755 8.70799 12.5727 9.00006L9.09091 5.51824C9.38297 5.41549 9.69039 5.36323 10 5.36369ZM10 1.27278C14.5455 1.27278 18.4273 4.10006 20 8.09096C19.2576 9.97545 17.9969 11.6113 16.3636 12.8091L15.0727 11.5091C16.33 10.6396 17.3439 9.46288 18.0182 8.09096C17.2833 6.59084 16.1423 5.32699 14.7249 4.4431C13.3074 3.55921 11.6704 3.09075 10 3.09096C9.00909 3.09096 8.03636 3.2546 7.12727 3.54551L5.72727 2.1546C7.03636 1.59096 8.48182 1.27278 10 1.27278ZM1.98182 8.09096C2.71668 9.59109 3.85769 10.8549 5.27512 11.7388C6.69256 12.6227 8.32956 13.0912 10 13.091C10.6273 13.091 11.2455 13.0273 11.8182 12.9001L9.74546 10.8182C9.11288 10.7504 8.52257 10.4681 8.0727 10.0183C7.62284 9.5684 7.34053 8.97809 7.27273 8.34551L4.18182 5.24551C3.28182 6.01824 2.52727 6.98187 1.98182 8.09096Z" fill="#CC8F33"/>
</svg>
