<svg width="20" height="15" viewBox="0 0 20 15" fill="none" xmlns="http://www.w3.org/2000/svg">
<path d="M5.09004 11.781C6.83904 13.149 8.30904 13.587 10 13.587C11.471 13.587 13.391 12.974 15.238 11.668C16.57 10.726 17.671 9.353 18.538 7.538C17.598 5.906 16.51 4.57 15.275 3.525C13.565 2.077 11.693 1.413 9.96304 1.413C8.17304 1.413 6.11304 2.211 4.35504 3.887C3.08904 5.093 2.13004 6.307 1.47504 7.525C2.54004 9.314 3.74604 10.731 5.09004 11.781ZM10 15C8.02604 15 6.26504 14.475 4.25904 12.906C2.68204 11.674 1.29504 10.005 0.0950403 7.906C0.0364393 7.8033 0.00388576 7.6878 0.000225017 7.56961C-0.00343573 7.45142 0.0219078 7.33413 0.0740403 7.228C0.80804 5.735 1.92504 4.278 3.42104 2.851C5.43804 0.928 7.83304 0 9.96304 0C12.006 0 14.186 0.775 16.147 2.434C17.596 3.66 18.85 5.236 19.91 7.156C20.02 7.354 20.03 7.595 19.937 7.801C18.949 10.001 17.642 11.683 16.016 12.833C13.94 14.3 11.749 15 9.99904 15M10.233 11.4C9.74715 11.4 9.26602 11.3043 8.81711 11.1184C8.36821 10.9324 7.96032 10.6599 7.61675 10.3163C7.27317 9.97272 7.00063 9.56483 6.81469 9.11593C6.62874 8.66702 6.53304 8.18589 6.53304 7.7C6.53304 7.21411 6.62874 6.73298 6.81469 6.28407C7.00063 5.83517 7.27317 5.42728 7.61675 5.0837C7.96032 4.74013 8.36821 4.46759 8.81711 4.28165C9.26602 4.0957 9.74715 4 10.233 4C11.2143 4 12.1555 4.38982 12.8493 5.0837C13.5432 5.77759 13.933 6.7187 13.933 7.7C13.933 8.6813 13.5432 9.62241 12.8493 10.3163C12.1555 11.0102 11.2143 11.4 10.233 11.4ZM10.233 10C10.5351 10 10.8342 9.94051 11.1132 9.82492C11.3923 9.70934 11.6458 9.53992 11.8594 9.32635C12.073 9.11277 12.2424 8.85922 12.358 8.58017C12.4735 8.30112 12.533 8.00204 12.533 7.7C12.533 7.39796 12.4735 7.09888 12.358 6.81983C12.2424 6.54078 12.073 6.28723 11.8594 6.07365C11.6458 5.86008 11.3923 5.69066 11.1132 5.57508C10.8342 5.45949 10.5351 5.4 10.233 5.4C9.62304 5.4 9.03803 5.64232 8.60669 6.07365C8.17536 6.50499 7.93304 7.09 7.93304 7.7C7.93304 8.31 8.17536 8.89501 8.60669 9.32635C9.03803 9.75768 9.62304 10 10.233 10Z" fill="#CC8F33"/>
</svg>
