<svg width="80" height="20" viewBox="0 0 80 20" fill="none" xmlns="http://www.w3.org/2000/svg">
<path d="M13.2693 13.4681C13.2693 17.741 9.90825 19.7258 6.31307 19.7258C3.78091 19.7258 1.68394 18.6951 0.665265 18.0856C0.269097 17.8485 0.154833 17.3492 0.367223 16.9393L1.38875 14.9677C1.68899 14.3882 2.48319 14.271 3.03587 14.6181C4.15902 15.3234 5.48197 15.6621 6.31307 15.6621C7.42306 15.6621 8.36178 14.804 8.36178 13.9083C8.36178 10.6569 0.738548 12.7107 0.738548 6.33046C0.738548 2.2409 3.66745 0.268066 6.95623 0.268066C9.05013 0.268066 10.8098 0.91856 11.7633 1.36027C12.2086 1.56657 12.3637 2.09506 12.1454 2.53462L11.1983 4.4412C10.9282 4.98506 10.2161 5.14717 9.68196 4.85834C9.11661 4.55266 8.38093 4.25267 7.67093 4.25267C6.59129 4.25267 5.6224 4.65333 5.6224 5.84159C5.62239 8.60329 13.2691 6.82575 13.2693 13.4681Z" fill="#A7DC74"/>
<path d="M18.2491 19.214C17.7237 19.214 17.2977 18.788 17.2977 18.2625V1.69898C17.2977 1.17352 17.7237 0.747559 18.2491 0.747559H20.963C21.4884 0.747559 21.9144 1.17352 21.9144 1.69898V18.2625C21.9144 18.788 21.4884 19.214 20.963 19.214H18.2491Z" fill="#A7DC74"/>
<path d="M43.5651 17.9394C43.7891 18.5596 43.3296 19.214 42.6703 19.214H39.5815C39.1719 19.214 38.8084 18.9519 38.6789 18.5634L35.5422 9.15257C35.2531 8.28515 34.0262 8.28512 33.737 9.15253L30.5999 18.5634C30.4704 18.9519 30.1068 19.214 29.6973 19.214H26.6088C25.9494 19.214 25.49 18.5596 25.7139 17.9394L31.695 1.37584C31.8312 0.99881 32.189 0.747559 32.5899 0.747559H36.6889C37.0897 0.747559 37.4476 0.998805 37.5837 1.37583L43.5651 17.9394Z" fill="#A7DC74"/>
<path d="M32.2098 15.9666C32.2098 14.5894 33.2915 13.4731 34.6257 13.4731C35.96 13.4731 37.0417 14.5894 37.0417 15.9666C37.0417 17.3437 35.96 18.46 34.6257 18.46C33.2915 18.46 32.2098 17.3437 32.2098 15.9666Z" fill="#FFEBEB"/>
<path d="M56.7172 15.1103C57.2426 15.1103 57.6686 15.5362 57.6686 16.0617V18.2625C57.6686 18.788 57.2426 19.214 56.7172 19.214H48.3287C47.8033 19.214 47.3773 18.788 47.3773 18.2625V1.69898C47.3773 1.17352 47.8033 0.747559 48.3287 0.747559H51.0424C51.5678 0.747559 51.9938 1.17352 51.9938 1.69898V14.1588C51.9938 14.6843 52.4198 15.1103 52.9452 15.1103H56.7172Z" fill="#A7DC74"/>
<path d="M80.0001 10.0134C80.0001 15.381 75.5473 19.7319 70.054 19.7319C64.5614 19.7319 60.1084 15.381 60.1084 10.0134C60.1084 4.64584 64.5614 0.294678 70.054 0.294678C75.5473 0.294678 80.0001 4.64584 80.0001 10.0134ZM75.2371 10.0134C75.2371 7.21653 72.9168 4.94904 70.054 4.94904C67.1916 4.94904 64.8714 7.21653 64.8714 10.0134C64.8714 12.8103 67.192 15.0778 70.054 15.0778C72.9168 15.0778 75.2371 12.8103 75.2371 10.0134Z" fill="#A7DC74"/>
</svg>
